<?xml version="1.0" encoding="utf-8"?>
<!-- Generator: Adobe Illustrator 24.3.0, SVG Export Plug-In . SVG Version: 6.00 Build 0)  -->
<svg version="1.1" id="Layer_1" xmlns="http://www.w3.org/2000/svg" xmlns:xlink="http://www.w3.org/1999/xlink" x="0px" y="0px"
	 viewBox="0 0 1200 862.9" style="enable-background:new 0 0 1200 862.9;" xml:space="preserve">
<style type="text/css">
	.st0{opacity:0.8;}
	.st1{font-family:'Roboto-Bold';}
	.st2{font-size:23px;}
	.st3{fill:none;}
	.st4{font-family:'Roboto-MediumItalic';}
	.st5{font-size:15px;}
	.st6{font-family:'Roboto-Regular';}
	.st7{fill:#58595B;}
	.st8{fill:none;stroke:#000000;stroke-width:0.5;stroke-miterlimit:10;}
	.st9{fill:none;stroke:#58595B;stroke-width:0.5;stroke-miterlimit:10;}
	.st10{fill:none;stroke:#62B5D7;stroke-width:0.5;stroke-miterlimit:10;}
	.st11{font-size:22px;}
	.st12{fill:#62B5D7;}
	.st13{font-size:10px;}
	
		.st14{opacity:0.5;fill:#FFFFFF;stroke:#FFFFFF;stroke-width:5;stroke-linecap:round;stroke-linejoin:round;stroke-miterlimit:10;enable-background:new    ;}
	.st15{fill:none;stroke:#62B5D7;stroke-miterlimit:10;}
	.st16{font-family:'Roboto-Light';}
</style>
<g id="godzilladibu01.psd" class="st0">
	
		<image style="overflow:visible;enable-background:new    ;" width="1500" height="1272" id="godzilladibu01_2_" xlink:href="B22DD8C8B27C5B8C.png"  transform="matrix(-0.5849 0 0 0.5849 1256.6422 116.7571)">
	</image>
</g>
<g id="godzilla.psd_1_">
	
		<image style="overflow:visible;enable-background:new    ;" width="1500" height="1110" id="godzilla_2_" xlink:href="B22DD8C8B27C5B8D.png"  transform="matrix(0.7337 0 0 0.7337 -24.8117 40.3643)">
	</image>
</g>
<text transform="matrix(0.9989 0 0 1 0.4956 145.2192)" class="st1 st2">2019</text>
<rect x="6.8" y="167.4" class="st3" width="110" height="109"/>
<text transform="matrix(1 0 0 1 -0.4955 169.3497)" class="st4 st5">Godzilla: King of </text>
<text transform="matrix(1 0 0 1 -0.4955 187.3497)" class="st4 st5">the Monsters</text>
<text transform="matrix(1 0 0 1 -0.3049 203.4652)" class="st6 st5">producida por </text>
<text transform="matrix(1 0 0 1 -0.4955 220.3497)" class="st6 st5">Legendary Films </text>
<text transform="matrix(1 0 0 1 -0.4955 238.3497)" class="st6 st5">y dirigido por </text>
<text transform="matrix(1 0 0 1 -0.4955 256.3497)" class="st6 st5">Michael </text>
<text transform="matrix(1 0 0 1 -0.4955 274.3497)" class="st6 st5">Dougherty</text>
<text transform="matrix(0.9989 0 0 1 1076.9023 278.3665)" class="st7 st1 st2">2014</text>
<rect x="1071.9" y="291.2" class="st3" width="110" height="109"/>
<line class="st8" x1="138.5" y1="47.6" x2="594.6" y2="47.6"/>
<line class="st9" x1="665.7" y1="124.8" x2="1086.8" y2="124.8"/>
<line class="st10" x1="580.4" y1="216.6" x2="695.8" y2="216.6"/>
<text transform="matrix(1 0 0 1 610.3782 56.9879)" class="st4 st11">119.8</text>
<text transform="matrix(1 0 0 1 614.5442 74.9879)" class="st4 st5">metros</text>
<text transform="matrix(1 0 0 1 619.2883 131.731)" class="st7 st4 st11">108</text>
<text transform="matrix(1 0 0 1 614.5442 149.731)" class="st7 st4 st5">metros</text>
<text transform="matrix(1 0 0 1 601.2224 211.4677)" class="st12 st4 st11">93</text>
<text transform="matrix(1 0 0 1 625.4138 211.4677)" class="st12 st4 st13"> </text>
<text transform="matrix(1 0 0 1 627.865 211.4677)" class="st12 st4 st5">metros</text>
<text transform="matrix(1 0 0 1 582.7283 188.1814)" class="st12 st6 st5">Estatua de la Libertad</text>
<path class="st14" d="M736.3,817.8v-27.5h-2.1v-1.7h-26.3l-11.2-25.7l-2.3-2.1v-3.5c0.9-0.1,2.7-0.9,2.7-4s-2.7-3.2-2.7-3.2v-5.9
	h2.1l3.1-2.2v-12.2h-5.4v9.1h-5.3v-13.4l-4-5.8v-15.2h2.4V702h-3.1c0,0-1.9-18.8-1.9-24c0-5.3,0-19,0-19l0.7-0.7v-2.4h2.2v-2.3h-2.6
	v-5.1h2.6v-1.9h4.8v-4.9h-4v-8.2h1.8V628h-5v-1.3h-1.7v-4h-1.8v-9h2.8v-7.5l-9-3.9h-2.8v-14.5c0,0-5-0.4-5,0l-1-0.3
	c0,0,0.1-0.7-0.4-1.1c-0.5-0.3-2.6-1.3-2.6-1.3s-1.2-3-1.7-4c-0.5-0.9-0.8-30.8-0.8-30.8s0.2-3,1.1-3.8s0.8-3.4,0.8-3.7
	s0.7-0.6,1.1-0.7c0.3-0.1,2-0.3,2.1-0.6s0.3-4.5,0.1-5.5c-0.2-0.9-0.5-4.4-0.6-5.3c-0.1-0.8-0.3-12.7-0.3-12.7s0.7-1.6,0.9-2.4
	c0.2-0.8,0.1-1.9-0.1-2.5c-0.2-0.6-0.5-4-0.5-4.9s2.4-2.4,2.9-3.6s0.6-11,0.5-12.2s-0.4-5-0.2-6.4s-0.1-14.4-0.5-17
	s-1.5-9.7-1.6-10.7c-0.1-1.1,0.1-1.9,0.1-1.9s1.4-0.3,2-0.6c0.6-0.3,1.6-2,1.7-2.6c0.1-0.6,0.7-2.7,1.2-3.8c0.4-1.1,1.1-5.8,1.1-5.8
	l7.9,4.8l11.4-19.1c0,0,1.7,0,2.1-0.5c0.4-0.5,1.3-0.6,1.8-1.2c0.5-0.5,1.2-2,1.2-2s1.3,0.5,1.6-0.6c0.3-1.2,0.3-2,0.7-2.5
	s1.1-1.3,1.6-2.4c0.5-1.2,0.6-3.3,0.5-3.9s-0.7-2.9-0.8-3.7c-0.1-0.7,0.4-2.5,0.8-3.2c0.4-0.6,3.2-5,3.2-5l0.9-4.4l-23.7-12.7
	L665,413.1c0,0-1.2-3.7-1.5-4.5s-1.3-4-2-5.5s-2-2.8-2.4-4.6c-0.4-1.8-0.6-8.7-1.1-10.5s-0.8-1.9-0.8-2.5s0-4.3-0.6-6.2
	c-0.6-1.9-2.9-4.9-3.4-5.9c-0.4-0.9-2.7-3.5-2.9-4.2s-1.1-3.9-1.3-5.3s-0.4-4.4,0.3-6s1.4-3.4,1.5-5.5s-0.8-3.5-0.8-4.7
	c0-1.3-0.4-5.3-0.3-6.3c0.1-1.1,0.5-5.1,0.9-6c0.4-0.8,0.7-2.5,0.7-2.5l19.5-1.6v-1.4l-20,0.2c0,0-0.1-2.3-0.9-3.8l17.1-8.8
	l-0.2-0.9l-19.2,5.9c0,0-2-1.8-2.8-2.4l10.2-11.7l-1.1-0.5l-14.4,10.2l-3-0.3l-2.5-15.1h-1.2l-2.7,15.1l-3.4,0.2l-14.4-10.2
	l-0.7,0.6l10.4,11.7c0,0-2.5,1.3-3.6,2.9l-9.6-3.4c0,0-0.5-6.4-0.9-9.3s-1.6-10.2-1.9-12.1c-0.3-1.9-0.6-11.6-0.5-12.4
	s0.4-2,0.7-2.9s0.2-5.7,0.4-7.8c0.2-2.1,0-3.3-0.4-4.3c-0.4-1.1-1.1-2.8-1.5-3.4c-0.4-0.5-1.3-1.1-1.1-1.7s0.9-2.2,1.1-3.2
	c0.1-0.9,0-2.1,0.2-2.8c0.2-0.7,0.6-1.6,0.9-1.9c0.3-0.3,1.5-0.4,1.5-0.4l0.8-0.8h2.7V256h1.2v-1.7h-1.3v-4.8l1.1-0.7v-1.3h-8.5
	v-5.8c0,0,1.9-1.9,2.4-4.9s-0.4-4.7-1.1-6.4c-0.6-1.7-2.8-6.1-2.9-9.3c0,0-1.2,5.1-2.8,6c-1.7,0.9-1.5,0.4-1.8-0.9
	c-0.3-1.3-0.6-1.9-0.6-1.9s-2.4,0.5-2.6,3.3c-0.1,2.8,0.5,3.6,0,4.5s-1.4,0.9-1.4,0.9s-0.5,3.7,0.5,5.7c1,1.9,2.4,2.8,2.4,2.8v5.8
	h-8.2v1.3l0.6,0.6v4.9h-1.3v1.7h1.5l0.4,1h2.4l0.1,0.8h1.8v4.5h1.2v2.8c0,0-1.4-0.3-1.5,1s0.1,2.4,0.1,2.4s-1.2,0.3-1.4,1.3
	c-0.3,1,0,2.7,0,2.7s-1.2,0.8-1,1.8c0.1,1,1.5,2.7,1.5,2.7s-0.4,3.7,0.3,5.1c0.6,1.4,1.8,3.5,1.8,3.5v13.9c0,0-0.8,1.4-0.9,2.8
	c-0.1,1.4-0.8,8.4-0.9,10.7c-0.1,2.3-0.3,4.6,0,6.7s1.8,7.6,2.1,9s-0.3,7.1-0.3,7.1s-1.7,3.1-3.5,5.1c-1.8,2.1-6.3,9.4-7.1,12.3
	c-0.8,3-0.5,7.3,0.3,8.6c0.8,1.3,2.2,2.8,2.2,2.8s-1,3.6-0.5,4.9s2.7,1.8,2.7,1.8s1.8,1.4,1.8,2.8s-0.5,8.7-0.6,10.2
	c-0.1,1.4,0,3.5,0.1,4.1s-1.3,1.8-1.2,3.1c0.1,1.3,1.4,3.5,1.4,3.9s0.8,3,1.4,4.4c0.6,1.4,0.8,3.7,0.6,5.1c-0.1,1.4,0,15.8,0,15.8
	s-4.1,4.8-4.5,6.6c-0.4,1.8-0.4,4,1.9,5.4c2.3,1.4,5.1,0.1,5.8,0.6c0.6,0.5,1.4,1.9,1.4,1.9l-0.1,8.7c0,0-5.4,8.9-6.3,10.3
	c-0.9,1.4-2.2,2.7-1.8,6s3.7,3.6,3.7,3.6s0.4,6,0.8,7.7s0.8,3.6,0.9,5.9c0.1,2.3,0.1,10.5,0.3,13.6c0.1,3.1,0.3,7.7,0.1,8.5
	c-0.1,0.8-2.3,2.4-2.3,4.4s0.1,2.7,0.6,3.5s0.5,2.2,0.5,3s-0.3,6-0.4,7.2s-1.7,4.6-1.7,6.9s0.1,9.9,0.1,12.2s0.5,8.4,0.5,9.9
	s-0.6,4.2-0.5,6.7c0.1,2.4-0.1,4.8,0.1,6c0.3,1.3,0.1,3.9,0,4.6c-0.1,0.8-1.5,0.3-1.8,1.7s-0.6,6.2-0.6,6.2s-2.4,2.4-3.1,3.5
	c-0.6,1-2.4,3.2-3.1,4.6c-0.6,1.4-1.5,3.2-1.9,4s-0.1,2.3-0.4,2.7c-0.3,0.4-0.4,1.9-0.4,1.5s-5,0-5,0v14.5h-2.8l-9,3.9v7.5h2.8v9
	h-1.8v4h-1.7v1.3h-5v5.4h1.8v8.2h-4.1v4.9h4.8v1.9h2.6v5.1h-2.6v2.3h2.2v2.4l0.7,0.7c0,0,0,13.7,0,19s-1.9,24-1.9,24H557v2.7h2.4
	v15.2l-4,5.8V739h-5.3v-9.1h-5.4v12.2l3.1,2.2h2.1v5.9c0,0-2.7,0.1-2.7,3.2s1.8,3.9,2.7,4v3.5l-2.3,2.1l-11.2,25.7h-26.3v1.7H508
	v27.5 M609.2,323.6l7.2,2.5l0.3,1.6l-1.7,1.5l-4.8-0.1L609.2,323.6z M617.5,344.9c-0.4,0.5-2,1.8-2.4,2.3s-1.1,1.8-1.2,2.2
	c-0.1,0.4-1.2,0.4-1.1-0.1c0.1-0.5-0.2-5.6-0.2-6.2s0.3-4.8,0.1-6.2c-0.2-1.4-0.9-2.2-0.9-2.2s-0.5-1.6-0.6-1.9l4.1,0.3
	c0,0,0.6,1.6,0.6,2s0.8,2.3,0.8,3.2c0,0.8,0.1,3,0.2,3.6c0.1,0.5,0.9,1.2,0.9,1.5C617.9,343.7,617.9,344.4,617.5,344.9z"/>
<path class="st15" d="M736.3,817.8v-27.5h-2.1v-1.7h-26.3l-11.2-25.7l-2.3-2.1v-3.5c0.9-0.1,2.7-0.9,2.7-4s-2.7-3.2-2.7-3.2v-5.9
	h2.1l3.1-2.2v-12.2h-5.4v9.1h-5.3v-13.4l-4-5.8v-15.2h2.4V702h-3.1c0,0-1.9-18.8-1.9-24c0-5.3,0-19,0-19l0.7-0.7v-2.4h2.2v-2.3h-2.6
	v-5.1h2.6v-1.9h4.8v-4.9h-4v-8.2h1.8V628h-5v-1.3h-1.7v-4h-1.8v-9h2.8v-7.5l-9-3.9h-2.8v-14.5c0,0-5-0.4-5,0l-1-0.3
	c0,0,0.1-0.7-0.4-1.1c-0.5-0.3-2.6-1.3-2.6-1.3s-1.2-3-1.7-4c-0.5-0.9-0.8-30.8-0.8-30.8s0.2-3,1.1-3.8s0.8-3.4,0.8-3.7
	s0.7-0.6,1.1-0.7c0.3-0.1,2-0.3,2.1-0.6s0.3-4.5,0.1-5.5c-0.2-0.9-0.5-4.4-0.6-5.3c-0.1-0.8-0.3-12.7-0.3-12.7s0.7-1.6,0.9-2.4
	c0.2-0.8,0.1-1.9-0.1-2.5c-0.2-0.6-0.5-4-0.5-4.9s2.4-2.4,2.9-3.6s0.6-11,0.5-12.2s-0.4-5-0.2-6.4s-0.1-14.4-0.5-17
	s-1.5-9.7-1.6-10.7c-0.1-1.1,0.1-1.9,0.1-1.9s1.4-0.3,2-0.6c0.6-0.3,1.6-2,1.7-2.6c0.1-0.6,0.7-2.7,1.2-3.8c0.4-1.1,1.1-5.8,1.1-5.8
	l7.9,4.8l11.4-19.1c0,0,1.7,0,2.1-0.5c0.4-0.5,1.3-0.6,1.8-1.2c0.5-0.5,1.2-2,1.2-2s1.3,0.5,1.6-0.6c0.3-1.2,0.3-2,0.7-2.5
	s1.1-1.3,1.6-2.4c0.5-1.2,0.6-3.3,0.5-3.9s-0.7-2.9-0.8-3.7c-0.1-0.7,0.4-2.5,0.8-3.2c0.4-0.6,3.2-5,3.2-5l0.9-4.4l-23.7-12.7
	L665,413.1c0,0-1.2-3.7-1.5-4.5s-1.3-4-2-5.5s-2-2.8-2.4-4.6c-0.4-1.8-0.6-8.7-1.1-10.5s-0.8-1.9-0.8-2.5s0-4.3-0.6-6.2
	c-0.6-1.9-2.9-4.9-3.4-5.9c-0.4-0.9-2.7-3.5-2.9-4.2s-1.1-3.9-1.3-5.3s-0.4-4.4,0.3-6s1.4-3.4,1.5-5.5s-0.8-3.5-0.8-4.7
	c0-1.3-0.4-5.3-0.3-6.3c0.1-1.1,0.5-5.1,0.9-6c0.4-0.8,0.7-2.5,0.7-2.5l19.5-1.6v-1.4l-20,0.2c0,0-0.1-2.3-0.9-3.8l17.1-8.8
	l-0.2-0.9l-19.2,5.9c0,0-2-1.8-2.8-2.4l10.2-11.7l-1.1-0.5l-14.4,10.2l-3-0.3l-2.5-15.1h-1.2l-2.7,15.1l-3.4,0.2l-14.4-10.2
	l-0.7,0.6l10.4,11.7c0,0-2.5,1.3-3.6,2.9l-9.6-3.4c0,0-0.5-6.4-0.9-9.3s-1.6-10.2-1.9-12.1c-0.3-1.9-0.6-11.6-0.5-12.4
	s0.4-2,0.7-2.9s0.2-5.7,0.4-7.8c0.2-2.1,0-3.3-0.4-4.3c-0.4-1.1-1.1-2.8-1.5-3.4c-0.4-0.5-1.3-1.1-1.1-1.7s0.9-2.2,1.1-3.2
	c0.1-0.9,0-2.1,0.2-2.8c0.2-0.7,0.6-1.6,0.9-1.9c0.3-0.3,1.5-0.4,1.5-0.4l0.8-0.8h2.7V256h1.2v-1.7h-1.3v-4.8l1.1-0.7v-1.3h-8.5
	v-5.8c0,0,1.9-1.9,2.4-4.9s-0.4-4.7-1.1-6.4c-0.6-1.7-2.8-6.1-2.9-9.3c0,0-1.2,5.1-2.8,6c-1.7,0.9-1.5,0.4-1.8-0.9
	c-0.3-1.3-0.6-1.9-0.6-1.9s-2.4,0.5-2.6,3.3c-0.1,2.8,0.5,3.6,0,4.5s-1.4,0.9-1.4,0.9s-0.5,3.7,0.5,5.7c1,1.9,2.4,2.8,2.4,2.8v5.8
	h-8.2v1.3l0.6,0.6v4.9h-1.3v1.7h1.5l0.4,1h2.4l0.1,0.8h1.8v4.5h1.2v2.8c0,0-1.4-0.3-1.5,1s0.1,2.4,0.1,2.4s-1.2,0.3-1.4,1.3
	c-0.3,1,0,2.7,0,2.7s-1.2,0.8-1,1.8c0.1,1,1.5,2.7,1.5,2.7s-0.4,3.7,0.3,5.1c0.6,1.4,1.8,3.5,1.8,3.5v13.9c0,0-0.8,1.4-0.9,2.8
	c-0.1,1.4-0.8,8.4-0.9,10.7c-0.1,2.3-0.3,4.6,0,6.7s1.8,7.6,2.1,9s-0.3,7.1-0.3,7.1s-1.7,3.1-3.5,5.1c-1.8,2.1-6.3,9.4-7.1,12.3
	c-0.8,3-0.5,7.3,0.3,8.6c0.8,1.3,2.2,2.8,2.2,2.8s-1,3.6-0.5,4.9s2.7,1.8,2.7,1.8s1.8,1.4,1.8,2.8s-0.5,8.7-0.6,10.2
	c-0.1,1.4,0,3.5,0.1,4.1s-1.3,1.8-1.2,3.1c0.1,1.3,1.4,3.5,1.4,3.9s0.8,3,1.4,4.4c0.6,1.4,0.8,3.7,0.6,5.1c-0.1,1.4,0,15.8,0,15.8
	s-4.1,4.8-4.5,6.6c-0.4,1.8-0.4,4,1.9,5.4c2.3,1.4,5.1,0.1,5.8,0.6c0.6,0.5,1.4,1.9,1.4,1.9l-0.1,8.7c0,0-5.4,8.9-6.3,10.3
	c-0.9,1.4-2.2,2.7-1.8,6s3.7,3.6,3.7,3.6s0.4,6,0.8,7.7s0.8,3.6,0.9,5.9c0.1,2.3,0.1,10.5,0.3,13.6c0.1,3.1,0.3,7.7,0.1,8.5
	c-0.1,0.8-2.3,2.4-2.3,4.4s0.1,2.7,0.6,3.5s0.5,2.2,0.5,3s-0.3,6-0.4,7.2s-1.7,4.6-1.7,6.9s0.1,9.9,0.1,12.2s0.5,8.4,0.5,9.9
	s-0.6,4.2-0.5,6.7c0.1,2.4-0.1,4.8,0.1,6c0.3,1.3,0.1,3.9,0,4.6c-0.1,0.8-1.5,0.3-1.8,1.7s-0.6,6.2-0.6,6.2s-2.4,2.4-3.1,3.5
	c-0.6,1-2.4,3.2-3.1,4.6c-0.6,1.4-1.5,3.2-1.9,4s-0.1,2.3-0.4,2.7c-0.3,0.4-0.4,1.9-0.4,1.5s-5,0-5,0v14.5h-2.8l-9,3.9v7.5h2.8v9
	h-1.8v4h-1.7v1.3h-5v5.4h1.8v8.2h-4.1v4.9h4.8v1.9h2.6v5.1h-2.6v2.3h2.2v2.4l0.7,0.7c0,0,0,13.7,0,19s-1.9,24-1.9,24H557v2.7h2.4
	v15.2l-4,5.8V739h-5.3v-9.1h-5.4v12.2l3.1,2.2h2.1v5.9c0,0-2.7,0.1-2.7,3.2s1.8,3.9,2.7,4v3.5l-2.3,2.1l-11.2,25.7h-26.3v1.7H508
	v27.5 M609.2,323.6l7.2,2.5l0.3,1.6l-1.7,1.5l-4.8-0.1L609.2,323.6z M617.5,344.9c-0.4,0.5-2,1.8-2.4,2.3s-1.1,1.8-1.2,2.2
	c-0.1,0.4-1.2,0.4-1.1-0.1c0.1-0.5-0.2-5.6-0.2-6.2s0.3-4.8,0.1-6.2c-0.2-1.4-0.9-2.2-0.9-2.2s-0.5-1.6-0.6-1.9l4.1,0.3
	c0,0,0.6,1.6,0.6,2s0.8,2.3,0.8,3.2c0,0.8,0.1,3,0.2,3.6c0.1,0.5,0.9,1.2,0.9,1.5C617.9,343.7,617.9,344.4,617.5,344.9z"/>
<text transform="matrix(1 0 0 1 1040.377 302.9983)" class="st7 st4 st5">Godzilla </text>
<text transform="matrix(1 0 0 1 1096.7734 302.9983)" class="st7 st16 st5">producido por</text>
<text transform="matrix(1 0 0 1 1051.2002 320.9983)" class="st7 st16 st5">Legendary Films y </text>
<text transform="matrix(1 0 0 1 1079.637 338.9983)" class="st7 st16 st5">dirigido por </text>
<text transform="matrix(1 0 0 1 1062.9872 355.3194)" class="st7 st16 st5">Gareth Edwards</text>
</svg>
